<mxfile host="app.diagrams.net" modified="2021-11-20T03:37:46.954Z" agent="5.0 (X11; Linux x86_64) AppleWebKit/537.36 (KHTML, like Gecko) Chrome/94.0.4606.81 Safari/537.36" etag="1M6fWAiLuE1CeeEU-j11" version="15.8.3" type="github">
  <diagram id="RVkzgzMljxvAVQpPoxjH" name="Page-1">
    <mxGraphModel dx="838" dy="1690" grid="1" gridSize="10" guides="1" tooltips="1" connect="1" arrows="1" fold="1" page="1" pageScale="1" pageWidth="827" pageHeight="1169" math="0" shadow="0">
      <root>
        <mxCell id="0" />
        <mxCell id="1" parent="0" />
        <mxCell id="tOcEG-pJ3GPGT-B6Gy56-61" value="" style="rounded=0;whiteSpace=wrap;html=1;labelBackgroundColor=#CCE5FF;strokeColor=#000000;strokeWidth=3;fillColor=#99CCFF;" vertex="1" parent="1">
          <mxGeometry x="190" y="-80" width="840" height="660" as="geometry" />
        </mxCell>
        <mxCell id="tOcEG-pJ3GPGT-B6Gy56-8" value="&lt;b&gt;Servidor de Aplicaciones&lt;/b&gt;" style="verticalAlign=top;align=left;spacingTop=8;spacingLeft=2;spacingRight=12;shape=cube;size=10;direction=south;fontStyle=4;html=1;fillColor=#7CCF7C;" vertex="1" parent="1">
          <mxGeometry x="250" y="310" width="220" height="180" as="geometry" />
        </mxCell>
        <mxCell id="tOcEG-pJ3GPGT-B6Gy56-5" value="&lt;b&gt;Cliente/Ususario&lt;/b&gt;" style="verticalAlign=top;align=left;spacingTop=8;spacingLeft=2;spacingRight=12;shape=cube;size=10;direction=south;fontStyle=4;html=1;fillColor=#7CCF7C;" vertex="1" parent="1">
          <mxGeometry x="250" y="70" width="220" height="130" as="geometry" />
        </mxCell>
        <mxCell id="tOcEG-pJ3GPGT-B6Gy56-42" style="edgeStyle=orthogonalEdgeStyle;rounded=0;orthogonalLoop=1;jettySize=auto;html=1;exitX=0;exitY=0;exitDx=0;exitDy=35;exitPerimeter=0;entryX=0;entryY=0;entryDx=0;entryDy=15;entryPerimeter=0;dashed=1;endArrow=classic;endFill=1;startArrow=none;startFill=0;" edge="1" parent="1" source="tOcEG-pJ3GPGT-B6Gy56-4" target="tOcEG-pJ3GPGT-B6Gy56-9">
          <mxGeometry relative="1" as="geometry">
            <Array as="points">
              <mxPoint x="230" y="145" />
              <mxPoint x="230" y="365" />
            </Array>
          </mxGeometry>
        </mxCell>
        <mxCell id="tOcEG-pJ3GPGT-B6Gy56-4" value="" style="shape=module;align=left;spacingLeft=20;align=center;verticalAlign=top;fillColor=#FFB366;" vertex="1" parent="1">
          <mxGeometry x="295" y="110" width="130" height="50" as="geometry" />
        </mxCell>
        <mxCell id="tOcEG-pJ3GPGT-B6Gy56-6" value="&lt;span&gt;Navegador Web&lt;/span&gt;" style="text;html=1;strokeColor=none;fillColor=none;align=center;verticalAlign=middle;whiteSpace=wrap;rounded=0;fontStyle=1" vertex="1" parent="1">
          <mxGeometry x="314" y="120" width="100" height="30" as="geometry" />
        </mxCell>
        <mxCell id="tOcEG-pJ3GPGT-B6Gy56-39" style="edgeStyle=orthogonalEdgeStyle;rounded=0;orthogonalLoop=1;jettySize=auto;html=1;exitX=0;exitY=0;exitDx=0;exitDy=35;exitPerimeter=0;entryX=0;entryY=0;entryDx=0;entryDy=15;entryPerimeter=0;dashed=1;" edge="1" parent="1" source="tOcEG-pJ3GPGT-B6Gy56-9" target="tOcEG-pJ3GPGT-B6Gy56-4">
          <mxGeometry relative="1" as="geometry">
            <Array as="points">
              <mxPoint x="210" y="385" />
              <mxPoint x="210" y="125" />
            </Array>
          </mxGeometry>
        </mxCell>
        <mxCell id="tOcEG-pJ3GPGT-B6Gy56-9" value="" style="shape=module;align=left;spacingLeft=20;align=center;verticalAlign=top;fillColor=#FFB366;" vertex="1" parent="1">
          <mxGeometry x="295" y="350" width="130" height="50" as="geometry" />
        </mxCell>
        <mxCell id="tOcEG-pJ3GPGT-B6Gy56-43" style="edgeStyle=orthogonalEdgeStyle;rounded=0;orthogonalLoop=1;jettySize=auto;html=1;exitX=0;exitY=0;exitDx=0;exitDy=35;exitPerimeter=0;dashed=1;endArrow=none;endFill=0;" edge="1" parent="1" source="tOcEG-pJ3GPGT-B6Gy56-10">
          <mxGeometry relative="1" as="geometry">
            <mxPoint x="260" y="370" as="targetPoint" />
          </mxGeometry>
        </mxCell>
        <mxCell id="tOcEG-pJ3GPGT-B6Gy56-44" style="edgeStyle=orthogonalEdgeStyle;rounded=0;orthogonalLoop=1;jettySize=auto;html=1;exitX=0;exitY=0;exitDx=0;exitDy=15;exitPerimeter=0;dashed=1;endArrow=none;endFill=0;startArrow=classic;startFill=1;" edge="1" parent="1" source="tOcEG-pJ3GPGT-B6Gy56-10">
          <mxGeometry relative="1" as="geometry">
            <mxPoint x="260" y="425" as="targetPoint" />
          </mxGeometry>
        </mxCell>
        <mxCell id="tOcEG-pJ3GPGT-B6Gy56-10" value="" style="shape=module;align=left;spacingLeft=20;align=center;verticalAlign=top;fillColor=#FFB366;" vertex="1" parent="1">
          <mxGeometry x="295" y="410" width="130" height="50" as="geometry" />
        </mxCell>
        <mxCell id="tOcEG-pJ3GPGT-B6Gy56-11" value="&lt;span&gt;Servidor HTTP&lt;/span&gt;" style="text;html=1;strokeColor=none;fillColor=none;align=center;verticalAlign=middle;whiteSpace=wrap;rounded=0;fontStyle=1" vertex="1" parent="1">
          <mxGeometry x="314" y="360" width="100" height="30" as="geometry" />
        </mxCell>
        <mxCell id="tOcEG-pJ3GPGT-B6Gy56-12" value="&lt;span&gt;Conexión BD&lt;/span&gt;" style="text;html=1;strokeColor=none;fillColor=none;align=center;verticalAlign=middle;whiteSpace=wrap;rounded=0;fontStyle=1" vertex="1" parent="1">
          <mxGeometry x="310" y="420" width="100" height="30" as="geometry" />
        </mxCell>
        <mxCell id="tOcEG-pJ3GPGT-B6Gy56-13" value="&lt;b&gt;Módulos del Aplicativo&lt;/b&gt;" style="verticalAlign=top;align=left;spacingTop=8;spacingLeft=2;spacingRight=12;shape=cube;size=10;direction=south;fontStyle=4;html=1;fillColor=#7CCF7C;" vertex="1" parent="1">
          <mxGeometry x="560" y="10" width="450" height="240" as="geometry" />
        </mxCell>
        <mxCell id="tOcEG-pJ3GPGT-B6Gy56-14" value="" style="shape=module;align=left;spacingLeft=20;align=center;verticalAlign=top;fillColor=#FFB366;" vertex="1" parent="1">
          <mxGeometry x="570" y="60" width="130" height="50" as="geometry" />
        </mxCell>
        <mxCell id="tOcEG-pJ3GPGT-B6Gy56-15" value="" style="shape=module;align=left;spacingLeft=20;align=center;verticalAlign=top;fillColor=#FFB366;" vertex="1" parent="1">
          <mxGeometry x="710" y="60" width="130" height="50" as="geometry" />
        </mxCell>
        <mxCell id="tOcEG-pJ3GPGT-B6Gy56-16" value="" style="shape=module;align=left;spacingLeft=20;align=center;verticalAlign=top;fillColor=#FFB366;" vertex="1" parent="1">
          <mxGeometry x="850" y="60" width="130" height="50" as="geometry" />
        </mxCell>
        <mxCell id="tOcEG-pJ3GPGT-B6Gy56-17" value="" style="shape=module;align=left;spacingLeft=20;align=center;verticalAlign=top;fillColor=#FFB366;" vertex="1" parent="1">
          <mxGeometry x="570" y="120" width="130" height="50" as="geometry" />
        </mxCell>
        <mxCell id="tOcEG-pJ3GPGT-B6Gy56-18" value="" style="shape=module;align=left;spacingLeft=20;align=center;verticalAlign=top;fillColor=#FFB366;" vertex="1" parent="1">
          <mxGeometry x="710" y="120" width="130" height="50" as="geometry" />
        </mxCell>
        <mxCell id="tOcEG-pJ3GPGT-B6Gy56-19" value="" style="shape=module;align=left;spacingLeft=20;align=center;verticalAlign=top;fillColor=#FFB366;" vertex="1" parent="1">
          <mxGeometry x="850" y="120" width="130" height="50" as="geometry" />
        </mxCell>
        <mxCell id="tOcEG-pJ3GPGT-B6Gy56-20" value="" style="shape=module;align=left;spacingLeft=20;align=center;verticalAlign=top;fillColor=#FFB366;" vertex="1" parent="1">
          <mxGeometry x="570" y="180" width="130" height="50" as="geometry" />
        </mxCell>
        <mxCell id="tOcEG-pJ3GPGT-B6Gy56-21" value="" style="shape=module;align=left;spacingLeft=20;align=center;verticalAlign=top;fillColor=#FFB366;" vertex="1" parent="1">
          <mxGeometry x="710" y="180" width="130" height="50" as="geometry" />
        </mxCell>
        <mxCell id="tOcEG-pJ3GPGT-B6Gy56-22" value="" style="shape=module;align=left;spacingLeft=20;align=center;verticalAlign=top;fillColor=#FFB366;" vertex="1" parent="1">
          <mxGeometry x="850" y="180" width="130" height="50" as="geometry" />
        </mxCell>
        <mxCell id="tOcEG-pJ3GPGT-B6Gy56-23" value="&lt;span&gt;Inicio&lt;/span&gt;" style="text;html=1;strokeColor=none;fillColor=none;align=center;verticalAlign=middle;whiteSpace=wrap;rounded=0;fontStyle=1" vertex="1" parent="1">
          <mxGeometry x="602.5" y="70" width="65" height="30" as="geometry" />
        </mxCell>
        <mxCell id="tOcEG-pJ3GPGT-B6Gy56-24" value="&lt;span&gt;Gestionar Usuarios&lt;/span&gt;" style="text;html=1;strokeColor=none;fillColor=none;align=center;verticalAlign=middle;whiteSpace=wrap;rounded=0;fontStyle=1" vertex="1" parent="1">
          <mxGeometry x="735" y="70" width="100" height="30" as="geometry" />
        </mxCell>
        <mxCell id="tOcEG-pJ3GPGT-B6Gy56-25" value="&lt;span&gt;Generar Reportes&lt;/span&gt;" style="text;html=1;strokeColor=none;fillColor=none;align=center;verticalAlign=middle;whiteSpace=wrap;rounded=0;fontStyle=1" vertex="1" parent="1">
          <mxGeometry x="870" y="70" width="100" height="30" as="geometry" />
        </mxCell>
        <mxCell id="tOcEG-pJ3GPGT-B6Gy56-26" value="&lt;span&gt;Ver E&lt;/span&gt;stadísticas" style="text;html=1;strokeColor=none;fillColor=none;align=center;verticalAlign=middle;whiteSpace=wrap;rounded=0;fontStyle=1" vertex="1" parent="1">
          <mxGeometry x="590" y="130" width="100" height="30" as="geometry" />
        </mxCell>
        <mxCell id="tOcEG-pJ3GPGT-B6Gy56-27" value="&lt;span&gt;Auditoria&amp;nbsp;&lt;/span&gt;" style="text;html=1;strokeColor=none;fillColor=none;align=center;verticalAlign=middle;whiteSpace=wrap;rounded=0;fontStyle=1" vertex="1" parent="1">
          <mxGeometry x="727" y="130" width="100" height="30" as="geometry" />
        </mxCell>
        <mxCell id="tOcEG-pJ3GPGT-B6Gy56-28" value="&lt;span&gt;Perfil del Candidato&lt;/span&gt;" style="text;html=1;strokeColor=none;fillColor=none;align=center;verticalAlign=middle;whiteSpace=wrap;rounded=0;fontStyle=1" vertex="1" parent="1">
          <mxGeometry x="870" y="130" width="100" height="30" as="geometry" />
        </mxCell>
        <mxCell id="tOcEG-pJ3GPGT-B6Gy56-29" value="&lt;span&gt;Generar Voto&lt;/span&gt;" style="text;html=1;strokeColor=none;fillColor=none;align=center;verticalAlign=middle;whiteSpace=wrap;rounded=0;fontStyle=1" vertex="1" parent="1">
          <mxGeometry x="590" y="190" width="100" height="30" as="geometry" />
        </mxCell>
        <mxCell id="tOcEG-pJ3GPGT-B6Gy56-30" value="&lt;span&gt;Comentarios&lt;/span&gt;" style="text;html=1;strokeColor=none;fillColor=none;align=center;verticalAlign=middle;whiteSpace=wrap;rounded=0;fontStyle=1" vertex="1" parent="1">
          <mxGeometry x="727" y="190" width="100" height="30" as="geometry" />
        </mxCell>
        <mxCell id="tOcEG-pJ3GPGT-B6Gy56-31" value="&lt;span&gt;Ganador Electoral&lt;/span&gt;" style="text;html=1;strokeColor=none;fillColor=none;align=center;verticalAlign=middle;whiteSpace=wrap;rounded=0;fontStyle=1" vertex="1" parent="1">
          <mxGeometry x="870" y="190" width="100" height="30" as="geometry" />
        </mxCell>
        <mxCell id="tOcEG-pJ3GPGT-B6Gy56-32" value="&lt;b&gt;Servidor de bases de datos&lt;/b&gt;" style="verticalAlign=top;align=left;spacingTop=8;spacingLeft=2;spacingRight=12;shape=cube;size=10;direction=south;fontStyle=4;html=1;fillColor=#7CCF7C;" vertex="1" parent="1">
          <mxGeometry x="600" y="350" width="310" height="190" as="geometry" />
        </mxCell>
        <mxCell id="tOcEG-pJ3GPGT-B6Gy56-33" value="" style="shape=cylinder3;whiteSpace=wrap;html=1;boundedLbl=1;backgroundOutline=1;size=15;fillColor=#999999;" vertex="1" parent="1">
          <mxGeometry x="620" y="410" width="80" height="90" as="geometry" />
        </mxCell>
        <mxCell id="tOcEG-pJ3GPGT-B6Gy56-34" value="&lt;span&gt;Bases de datos&lt;/span&gt;" style="text;html=1;strokeColor=none;fillColor=none;align=center;verticalAlign=middle;whiteSpace=wrap;rounded=0;fontStyle=1" vertex="1" parent="1">
          <mxGeometry x="620" y="450" width="80" height="30" as="geometry" />
        </mxCell>
        <mxCell id="tOcEG-pJ3GPGT-B6Gy56-45" style="edgeStyle=orthogonalEdgeStyle;rounded=0;orthogonalLoop=1;jettySize=auto;html=1;exitX=0.5;exitY=1;exitDx=0;exitDy=0;entryX=0.5;entryY=1;entryDx=0;entryDy=0;entryPerimeter=0;dashed=1;startArrow=none;startFill=0;endArrow=classic;endFill=1;" edge="1" parent="1" source="tOcEG-pJ3GPGT-B6Gy56-35" target="tOcEG-pJ3GPGT-B6Gy56-33">
          <mxGeometry relative="1" as="geometry" />
        </mxCell>
        <mxCell id="tOcEG-pJ3GPGT-B6Gy56-35" value="" style="shape=module;align=left;spacingLeft=20;align=center;verticalAlign=top;fillColor=#FFB366;" vertex="1" parent="1">
          <mxGeometry x="735" y="430" width="130" height="50" as="geometry" />
        </mxCell>
        <mxCell id="tOcEG-pJ3GPGT-B6Gy56-36" value="&lt;span&gt;MySQL&lt;/span&gt;" style="text;html=1;strokeColor=none;fillColor=none;align=center;verticalAlign=middle;whiteSpace=wrap;rounded=0;fontStyle=1" vertex="1" parent="1">
          <mxGeometry x="760" y="440" width="80" height="30" as="geometry" />
        </mxCell>
        <mxCell id="tOcEG-pJ3GPGT-B6Gy56-38" value="" style="endArrow=classic;html=1;rounded=0;exitX=0;exitY=0;exitDx=0;exitDy=0;exitPerimeter=0;entryX=1;entryY=1;entryDx=0;entryDy=0;entryPerimeter=0;" edge="1" parent="1" source="tOcEG-pJ3GPGT-B6Gy56-8" target="tOcEG-pJ3GPGT-B6Gy56-13">
          <mxGeometry width="50" height="50" relative="1" as="geometry">
            <mxPoint x="610" y="270" as="sourcePoint" />
            <mxPoint x="660" y="220" as="targetPoint" />
          </mxGeometry>
        </mxCell>
        <mxCell id="tOcEG-pJ3GPGT-B6Gy56-46" value="" style="rounded=0;orthogonalLoop=1;jettySize=auto;html=1;endArrow=none;endFill=0;sketch=0;sourcePerimeterSpacing=0;targetPerimeterSpacing=0;exitX=1;exitY=0.5;exitDx=0;exitDy=0;" edge="1" target="tOcEG-pJ3GPGT-B6Gy56-48" parent="1" source="tOcEG-pJ3GPGT-B6Gy56-10">
          <mxGeometry relative="1" as="geometry">
            <mxPoint x="505" y="440" as="sourcePoint" />
            <Array as="points">
              <mxPoint x="505" y="435" />
            </Array>
          </mxGeometry>
        </mxCell>
        <mxCell id="tOcEG-pJ3GPGT-B6Gy56-47" value="" style="rounded=0;orthogonalLoop=1;jettySize=auto;html=1;endArrow=halfCircle;endFill=0;endSize=6;strokeWidth=1;sketch=0;exitX=0;exitY=0;exitDx=190;exitDy=160;exitPerimeter=0;" edge="1" target="tOcEG-pJ3GPGT-B6Gy56-48" parent="1" source="tOcEG-pJ3GPGT-B6Gy56-32">
          <mxGeometry relative="1" as="geometry">
            <mxPoint x="668" y="580" as="sourcePoint" />
            <mxPoint x="490" y="530" as="targetPoint" />
            <Array as="points">
              <mxPoint x="750" y="560" />
              <mxPoint x="620" y="560" />
              <mxPoint x="505" y="560" />
            </Array>
          </mxGeometry>
        </mxCell>
        <mxCell id="tOcEG-pJ3GPGT-B6Gy56-48" value="" style="ellipse;whiteSpace=wrap;html=1;align=center;aspect=fixed;resizable=0;points=[];outlineConnect=0;sketch=0;fillColor=#FF0000;" vertex="1" parent="1">
          <mxGeometry x="500" y="490" width="10" height="10" as="geometry" />
        </mxCell>
        <mxCell id="tOcEG-pJ3GPGT-B6Gy56-49" value="" style="shape=note;whiteSpace=wrap;html=1;backgroundOutline=1;darkOpacity=0.05;fillColor=#FFFF66;" vertex="1" parent="1">
          <mxGeometry x="250" y="-20" width="260" height="80" as="geometry" />
        </mxCell>
        <mxCell id="tOcEG-pJ3GPGT-B6Gy56-50" value="&lt;span&gt;Los usuarios inician en el navegador,&lt;br&gt;Ingresan la URL de la pagina inicial para&lt;br&gt;autenticación y uso del sistema&lt;br&gt;&lt;br&gt;&lt;/span&gt;" style="text;html=1;strokeColor=none;fillColor=none;align=center;verticalAlign=middle;whiteSpace=wrap;rounded=0;" vertex="1" parent="1">
          <mxGeometry x="254" y="-10" width="220" height="60" as="geometry" />
        </mxCell>
        <mxCell id="tOcEG-pJ3GPGT-B6Gy56-51" value="" style="shape=note;whiteSpace=wrap;html=1;backgroundOutline=1;darkOpacity=0.05;fillColor=#FFFF66;" vertex="1" parent="1">
          <mxGeometry x="240" y="240" width="230" height="60" as="geometry" />
        </mxCell>
        <mxCell id="tOcEG-pJ3GPGT-B6Gy56-52" value="&lt;span&gt;Inicia Proceso de autenticación, se retorna respuesta al cliente de éxito&amp;nbsp;o fracaso.&lt;br&gt;&lt;/span&gt;" style="text;html=1;strokeColor=none;fillColor=none;align=center;verticalAlign=middle;whiteSpace=wrap;rounded=0;" vertex="1" parent="1">
          <mxGeometry x="240" y="240" width="200" height="60" as="geometry" />
        </mxCell>
        <mxCell id="tOcEG-pJ3GPGT-B6Gy56-53" value="" style="shape=note;whiteSpace=wrap;html=1;backgroundOutline=1;darkOpacity=0.05;fillColor=#FFFF66;" vertex="1" parent="1">
          <mxGeometry x="605" y="280" width="305" height="60" as="geometry" />
        </mxCell>
        <mxCell id="tOcEG-pJ3GPGT-B6Gy56-54" value="&lt;span&gt;Servidor de las bases de datos de la aplicación donde están almacenados los datos de las elecciones&lt;br&gt;&lt;/span&gt;" style="text;html=1;strokeColor=none;fillColor=none;align=center;verticalAlign=middle;whiteSpace=wrap;rounded=0;" vertex="1" parent="1">
          <mxGeometry x="615" y="290" width="265" height="40" as="geometry" />
        </mxCell>
        <mxCell id="tOcEG-pJ3GPGT-B6Gy56-55" value="" style="shape=note;whiteSpace=wrap;html=1;backgroundOutline=1;darkOpacity=0.05;fillColor=#FFFF66;" vertex="1" parent="1">
          <mxGeometry x="210" y="500" width="275" height="70" as="geometry" />
        </mxCell>
        <mxCell id="tOcEG-pJ3GPGT-B6Gy56-56" value="&lt;span&gt;Servidor donde se encuentra alojada la aplicación web, la lógica de negocio y las diferentes clases, en esta parte es donde también se maneja la sesión de usuarios&lt;br&gt;&lt;/span&gt;" style="text;html=1;strokeColor=none;fillColor=none;align=center;verticalAlign=middle;whiteSpace=wrap;rounded=0;" vertex="1" parent="1">
          <mxGeometry x="200" y="505" width="265" height="60" as="geometry" />
        </mxCell>
        <mxCell id="tOcEG-pJ3GPGT-B6Gy56-57" value="&lt;span&gt;&lt;b&gt;Conexión BD&lt;/b&gt;&lt;/span&gt;" style="text;html=1;strokeColor=none;fillColor=none;align=center;verticalAlign=middle;whiteSpace=wrap;rounded=0;" vertex="1" parent="1">
          <mxGeometry x="510" y="535" width="100" height="30" as="geometry" />
        </mxCell>
        <mxCell id="tOcEG-pJ3GPGT-B6Gy56-58" value="&lt;span&gt;&lt;b&gt;Conexión HTTP&lt;/b&gt;&lt;/span&gt;" style="text;html=1;strokeColor=none;fillColor=none;align=center;verticalAlign=middle;whiteSpace=wrap;rounded=0;" vertex="1" parent="1">
          <mxGeometry x="210" y="210" width="100" height="30" as="geometry" />
        </mxCell>
        <mxCell id="tOcEG-pJ3GPGT-B6Gy56-62" value="&lt;span&gt;&lt;font style=&quot;font-size: 17px&quot;&gt;SISTEMA DE GESTIÓN DE VOTACIÓN EN LINEA&lt;/font&gt;&lt;/span&gt;" style="text;html=1;strokeColor=none;fillColor=none;align=center;verticalAlign=middle;whiteSpace=wrap;rounded=0;fontStyle=1" vertex="1" parent="1">
          <mxGeometry x="460" y="-70" width="400" height="30" as="geometry" />
        </mxCell>
      </root>
    </mxGraphModel>
  </diagram>
</mxfile>
